<svg xmlns="http://www.w3.org/2000/svg" version="1.1" xmlns:xlink="http://www.w3.org/1999/xlink" xmlns:svgjs="http://svgjs.dev/svgjs" width="85" height="85"><svg width="85" height="85" viewBox="0 0 85 85" fill="none" xmlns="http://www.w3.org/2000/svg">
<circle cx="42.5" cy="42.5" r="42.5" fill="#026670"></circle>
<path d="M48.8597 23.6514C48.8597 23.4705 48.9147 23.3257 49.0249 23.2171C49.1717 23.0724 49.3369 23 49.5204 23H57.3393C57.5228 23 57.6696 23.0724 57.7797 23.2171C57.9266 23.3257 58 23.4705 58 23.6514V60.3486C58 60.5295 57.9266 60.6924 57.7797 60.8371C57.6696 60.9457 57.5228 61 57.3393 61H49.8508C49.4837 61 49.2268 60.8552 49.0799 60.5657L36.4156 39.8286C36.3422 39.72 36.2688 39.6838 36.1954 39.72C36.122 39.72 36.0853 39.7924 36.0853 39.9371L36.1403 60.3486C36.1403 60.5295 36.0669 60.6924 35.9201 60.8371C35.8099 60.9457 35.6631 61 35.4796 61H27.6607C27.4772 61 27.312 60.9457 27.1652 60.8371C27.0551 60.6924 27 60.5295 27 60.3486V23.6514C27 23.4705 27.0551 23.3257 27.1652 23.2171C27.312 23.0724 27.4772 23 27.6607 23H35.2043C35.5713 23 35.8283 23.1448 35.9751 23.4343L48.5844 44.1171C48.6578 44.2257 48.7312 44.28 48.8046 44.28C48.878 44.2438 48.9147 44.1533 48.9147 44.0086L48.8597 23.6514Z" fill="white"></path>
</svg><style>@media (prefers-color-scheme: light) { :root { filter: none; } }
@media (prefers-color-scheme: dark) { :root { filter: none; } }
</style></svg>